<svg xmlns="http://www.w3.org/2000/svg" xmlns:xlink="http://www.w3.org/1999/xlink" version="1.1" x="0px" y="0px" viewBox="0 0 32 40" style="enable-background:new 0 0 32 32;" xml:space="preserve"><path d="M7.0317392,17.1304874c-3.1248167,3.1739502-4.588501,5.8522339-4.3283081,7.9556274  c0.0986328,0.8007812,0.5029297,1.9267578,1.8691404,2.7460938c0.7978516,0.4785156,1.6816406,0.7148438,2.6132812,0.7148438  c1.546875,0,3.2255859-0.6513672,4.8671875-1.9277344c0.5214844-0.4042969,1.1699219-0.7421875,1.9208984-1.1328125  c0.5163574-0.2686768,1.0961914-0.5778198,1.7098389-0.9429932c1.0385752,1.0362549,1.3615732,2.2940063,1.7237558,3.7271729  c0.1015625,0.4023438,0.2041016,0.8095703,0.3242188,1.2167969c0.0966797,0.3271484,0.3955078,0.5380859,0.7197266,0.5380859  c0.0703125,0,0.1416016-0.0097656,0.2119141-0.0302734c0.3974609-0.1171875,0.625-0.5341797,0.5078125-0.9316406  c-0.1152344-0.3886719-0.2128906-0.7763672-0.3095703-1.1601562c-0.3630371-1.4373169-0.7474365-2.913147-1.9021606-4.1878052  c0.4020996-0.2867432,0.8138428-0.6025391,1.236145-0.9664917c0.3144531-0.2705078,0.3496094-0.7441406,0.0791016-1.0576172  c-0.2714844-0.3164062-0.7441406-0.3476562-1.0576172-0.0791016c-0.6040039,0.5203247-1.1791382,0.9273071-1.7355967,1.2871094  c-0.1050415,0.039917-0.2007446,0.0994873-0.2810669,0.1870728c-0.6782227,0.4204102-1.3198242,0.7572021-1.9188843,1.0687866  c-0.7822266,0.4072266-1.5205078,0.7919922-2.1484375,1.2802734c-2.1152344,1.6435547-4.2246094,2.0488281-5.7890625,1.109375  c-0.6904297-0.4130859-1.0664062-0.9501953-1.1523438-1.6425781c-0.1258545-1.0180664,0.3355103-2.8149414,2.9899292-5.7529907  c0.0681152,0.2814331,0.1507568,0.5596924,0.2590942,0.8311157c0.1054688,0.2646484,0.3535156,0.4472656,0.6376953,0.4697266  c0.0195312,0.0009766,0.0390625,0.0019531,0.0585938,0.0019531c0.2636719,0,0.5087891-0.1386719,0.6445312-0.3671875  c0.5898438-0.9921875,1.7001953-1.4960938,2.8759766-2.0292969c0.5625-0.2558594,1.1455078-0.5205078,1.7011719-0.8496094  c1.5458374-0.914978,2.6190186-2.8992929,1.8619385-5.0065317c0.0821533-0.274353,0.1968994-0.6826782,0.3323975-1.1663208  c0.2519531-0.8994141,0.7392588-2.6416016,1.1230478-3.765625c0.71875,1.2099609,1.6650391,3.2539062,1.4306641,4.2753906  c-0.0605469,0.2646484-0.1884766,0.3574219-0.3613281,0.4150391c-0.3925781,0.1308594-0.6044922,0.5556641-0.4726562,0.9492188  c0.0969849,0.2908936,0.3577271,0.4752197,0.6450195,0.5013428c0.2094116,4.1005259,1.4238281,7.8103647,2.576416,9.6804209  c0.0011597,0.0021362,0.0009766,0.0045776,0.0021973,0.0067139c0.0020142,0.00354,0.005127,0.0065918,0.0071411,0.0101318  c0.0031738,0.0050659,0.0062866,0.012146,0.0094604,0.0172119c0.0019531,0.0031128,0.0056152,0.0040894,0.0076294,0.0072021  c1.5092163,2.6231079,5.3915405,4.3295898,7.2628784,5.151001l0.4824219,0.2138672  c0.0986328,0.0449219,0.2050781,0.0673828,0.3105469,0.0673828c0.1416016,0,0.2832031-0.0400391,0.40625-0.1191406  c0.2138672-0.1386719,0.34375-0.3759766,0.34375-0.6308594c0-3.8469238-3.3844604-14.5912485-9.9418945-18.168335  c-0.5847168-2.0282593-2.0098877-4.1937866-2.4536133-4.4859619c-0.3134766-0.2060547-0.7353516-0.1474609-0.9804697,0.1376953  c-0.234436,0.2728882-0.4893188,0.8705444-0.8096924,1.8419189c-0.6028442-0.8932495-1.2172241-1.5946045-1.2567139-1.6397705  c-0.1806641-0.2060547-0.4609375-0.2939453-0.7285156-0.234375c-0.2675781,0.0615234-0.4804688,0.2636719-0.5546875,0.5273438  l-0.619812,2.1964722L7.4280405,2.2570126C7.2063608,1.9777156,6.8176889,1.8937312,6.498353,2.0568173  C6.1809702,2.2199032,6.0217905,2.5851376,6.1194468,2.9288876l2.8143311,9.8990479  c-0.3063965,0.3510742-0.5947266,0.7183838-0.8397217,1.1185303C7.4741831,14.9589777,7.1221933,16.0475407,7.0317392,17.1304874z   M27.7356586,26.619318c-1.7978516-0.8095703-4.8330078-2.3154297-5.9326172-4.2617188  c-0.0029297-0.005188-0.0081787-0.0078735-0.0112305-0.0129395c-0.0027466-0.0045776-0.0025635-0.0098877-0.0053711-0.0144043  c-0.8244019-1.3244019-2.3731689-5.0955811-2.4088135-9.9614878c0.1115723-0.2246704,0.2003174-0.4675293,0.2369385-0.746521  c0.0031128-0.0237427,0.001709-0.0499268,0.0042114-0.0740356C24.4076557,14.9028254,27.2095356,22.6816959,27.7356586,26.619318z   M10.2056284,8.1638117l0.2561646,0.3224487C10.267518,8.8825006,9.9021616,9.3583307,9.5939341,9.6629572L9.4017344,8.9871149  C9.687623,8.7604914,9.9599009,8.4753962,10.2056284,8.1638117z M10.161622,11.6597223l-0.1296387-0.4560547  c0.5324097-0.3186646,1.0464478-0.8998413,1.4229736-1.4672852l0.6370239,0.8018188  C11.4013681,10.8342218,10.7503061,11.2065363,10.161622,11.6597223z M13.1321421,9.4318171l0.5136719-1.8193359  c0.3214722,0.4456177,0.6594849,0.9706421,0.901123,1.475769c-0.0750732,0.2596436-0.1535645,0.5334473-0.2352295,0.8222656  c-0.2360229,0.0357056-0.47052,0.0743408-0.7012329,0.1279907l-0.4796753-0.6037598  C13.1311045,9.4337091,13.1318369,9.4329157,13.1321421,9.4318171z M9.2424326,6.9514093  C9.1456308,7.0933161,9.0438852,7.2289972,8.9378672,7.3555231L8.5891733,6.1290827L9.2424326,6.9514093z M9.373353,14.7296686  c0.9825439-1.6038208,2.6118164-2.7469482,4.482666-3.2060547c-0.0540771,0.187439-0.1001587,0.3425903-0.1320801,0.4375  c-0.0124512,0.0371094-0.0075684,0.0742798-0.0140381,0.1116943c-0.0096436,0.0540771-0.0228882,0.1063843-0.0203247,0.1619873  c0.0026855,0.0574341,0.0211182,0.1099854,0.036499,0.1645508c0.0097656,0.0349121,0.0081177,0.0706787,0.0232544,0.1047363  c0.6582031,1.484375-0.1367188,2.8085938-1.1542969,3.4111328c-0.4863281,0.2880869-1.03125,0.5351572-1.5576172,0.774415  c-0.875,0.3964844-1.7695312,0.8027344-2.515625,1.4287109C8.420228,16.9962711,8.7102671,15.813653,9.373353,14.7296686z"/><path d="M14.6067514,18.2140446c-0.8964844,1.1503906-1.3896484,1.3681641-2.1962891,0.9775391  c-0.3730469-0.1787109-0.8212891-0.0244141-1.0019531,0.3476562c-0.1806641,0.3730469-0.0253906,0.8212891,0.3476562,1.0019531  c0.484375,0.234375,0.9248047,0.3310547,1.3232422,0.3310547c1.3603516,0,2.2353516-1.125,2.7109375-1.7382812  c0.2548838-0.3271484,0.1953125-0.7978516-0.1318359-1.0517578C15.3313608,17.8273258,14.8596811,17.8868961,14.6067514,18.2140446z  "/><path d="M7.0130014,23.1906071c-0.2929688-0.2929688-0.7675781-0.2929688-1.0605469,0s-0.2929688,0.7675781,0,1.0605469  l0.3583984,0.3583984c0.1464844,0.1464844,0.3378906,0.2197266,0.5302734,0.2197266s0.3837891-0.0732422,0.5302734-0.2197266  c0.2929688-0.2929688,0.2929688-0.7675781,0-1.0605469L7.0130014,23.1906071z"/></svg>